<svg width="314" height="282" viewBox="0 0 314 282" fill="none" xmlns="http://www.w3.org/2000/svg">
<path d="M309.831 125.395L246.79 15.6047C241.251 5.90751 231.058 0 219.868 0H94.0075C82.9282 0 72.7353 5.90751 67.0849 15.6047L4.15472 125.395C-1.38491 135.092 -1.38491 146.908 4.15472 156.605L67.0849 266.395C72.6245 276.092 82.8174 282 94.0075 282H219.979C231.058 282 241.251 276.092 246.901 266.395L309.942 156.605C315.371 146.908 315.371 134.981 309.831 125.395ZM146.412 58.5178C146.412 52.7217 151.176 47.9289 156.938 47.9289C162.699 47.9289 167.463 52.7217 167.463 58.5178V140.889C167.463 146.685 162.699 151.477 156.938 151.477C151.176 151.477 146.412 146.685 146.412 140.889V58.5178ZM156.938 224.374C108.189 224.374 68.636 184.47 68.636 135.538C68.636 106.892 82.485 79.8071 105.641 63.1992C110.405 59.8553 116.942 60.8585 120.376 65.6514C123.7 70.4443 122.703 77.0205 117.939 80.4759C100.212 93.0711 89.6865 113.692 89.6865 135.538C89.6865 172.878 119.822 203.196 156.938 203.196C194.053 203.196 224.189 172.878 224.189 135.538C224.189 114.026 213.885 93.517 196.491 80.8103C191.837 77.3549 190.729 70.7787 194.164 65.9858C197.598 61.3043 204.135 60.1897 208.899 63.6451C231.612 80.3644 245.239 107.227 245.239 135.538C245.239 184.47 205.686 224.374 156.938 224.374Z" fill="white"/>
</svg>
